<svg xmlns="http://www.w3.org/2000/svg" data-name="Layer 1" viewBox="-4.95 -9.9 108.9 133.65" x="0px" y="0px"><title>1</title><path d="M65,76.77H32A11.47,11.47,0,0,1,20.5,65.32V39.86A11.47,11.47,0,0,1,32,28.41H65A11.47,11.47,0,0,1,76.5,39.86V65.32A11.47,11.47,0,0,1,65,76.77ZM32,31A8.92,8.92,0,0,0,23,39.86V65.32A8.92,8.92,0,0,0,32,74.22H65A8.92,8.92,0,0,0,74,65.32V39.86A8.92,8.92,0,0,0,65,31H32ZM48.5,69.13A12.73,12.73,0,1,1,61.23,56.41,12.74,12.74,0,0,1,48.5,69.13Zm0-22.91A10.18,10.18,0,1,0,58.68,56.41,10.19,10.19,0,0,0,48.5,46.22ZM44.68,31H29.41a1.27,1.27,0,0,1-1.27-1.27V25.07a1.27,1.27,0,0,1,1.27-1.27H44.68A1.27,1.27,0,0,1,46,25.07v4.62A1.27,1.27,0,0,1,44.68,31Zm-14-2.55H43.41V26.34H30.68v2.07ZM67.59,46.22H60A1.27,1.27,0,0,1,58.68,45V37.32A1.27,1.27,0,0,1,60,36h7.64a1.27,1.27,0,0,1,1.27,1.27V45A1.27,1.27,0,0,1,67.59,46.22Zm-6.36-2.55h5.09V38.59H61.23v5.09ZM48.5,61.5a5.09,5.09,0,1,1,5.09-5.09A5.1,5.1,0,0,1,48.5,61.5Zm0-7.64A2.55,2.55,0,1,0,51,56.41,2.55,2.55,0,0,0,48.5,53.86Z"/><text x="0.0" y="116.32500000000002" font-size="4.95" font-weight="bold" font-family="Arbeit Regular, Helvetica, Arial-Unicode, Arial, Sans-serif" fill="#000000">Created by Erik S</text><text x="0.0" y="121.27500000000002" font-size="4.95" font-weight="bold" font-family="Arbeit Regular, Helvetica, Arial-Unicode, Arial, Sans-serif" fill="#000000">from Noun Project</text></svg>