<svg xmlns="http://www.w3.org/2000/svg" xmlns:xlink="http://www.w3.org/1999/xlink" width="128" zoomAndPan="magnify" viewBox="0 0 96 95.999999" height="128" preserveAspectRatio="xMidYMid meet" version="1.0"><path fill="#000000" d="M 71.996094 86.300781 L 24.722656 86.300781 C 24.183594 86.304688 23.648438 86.277344 23.109375 86.226562 C 22.574219 86.175781 22.042969 86.097656 21.515625 85.996094 C 20.984375 85.890625 20.464844 85.761719 19.949219 85.605469 C 19.433594 85.449219 18.925781 85.269531 18.429688 85.066406 C 17.929688 84.859375 17.445312 84.632812 16.96875 84.378906 C 16.492188 84.125 16.03125 83.851562 15.582031 83.550781 C 15.132812 83.253906 14.703125 82.933594 14.285156 82.59375 C 13.867188 82.25 13.46875 81.890625 13.085938 81.511719 C 12.703125 81.128906 12.34375 80.730469 12 80.316406 C 11.65625 79.898438 11.335938 79.46875 11.035156 79.019531 C 10.738281 78.574219 10.460938 78.109375 10.203125 77.636719 C 9.949219 77.160156 9.71875 76.675781 9.511719 76.175781 C 9.304688 75.679688 9.121094 75.171875 8.964844 74.65625 C 8.808594 74.140625 8.675781 73.621094 8.570312 73.09375 C 8.464844 72.5625 8.382812 72.03125 8.332031 71.496094 C 8.277344 70.957031 8.25 70.421875 8.25 69.882812 L 8.25 33.367188 C 8.25 32.828125 8.277344 32.289062 8.332031 31.753906 C 8.382812 31.21875 8.464844 30.6875 8.570312 30.15625 C 8.675781 29.628906 8.808594 29.105469 8.964844 28.589844 C 9.121094 28.074219 9.304688 27.570312 9.511719 27.070312 C 9.71875 26.574219 9.949219 26.085938 10.203125 25.613281 C 10.460938 25.136719 10.738281 24.675781 11.035156 24.230469 C 11.335938 23.78125 11.65625 23.347656 12 22.933594 C 12.34375 22.515625 12.703125 22.121094 13.085938 21.738281 C 13.46875 21.359375 13.867188 20.996094 14.285156 20.65625 C 14.703125 20.316406 15.132812 19.996094 15.582031 19.699219 C 16.03125 19.398438 16.492188 19.125 16.96875 18.871094 C 17.445312 18.617188 17.929688 18.386719 18.429688 18.183594 C 18.925781 17.976562 19.433594 17.796875 19.949219 17.644531 C 20.464844 17.488281 20.984375 17.359375 21.515625 17.253906 C 22.042969 17.152344 22.574219 17.074219 23.109375 17.019531 C 23.648438 16.96875 24.183594 16.945312 24.722656 16.945312 L 71.996094 16.945312 C 72.535156 16.945312 73.070312 16.96875 73.605469 17.019531 C 74.144531 17.074219 74.675781 17.152344 75.203125 17.253906 C 75.730469 17.359375 76.253906 17.488281 76.769531 17.644531 C 77.285156 17.796875 77.792969 17.976562 78.289062 18.183594 C 78.789062 18.386719 79.273438 18.617188 79.75 18.871094 C 80.226562 19.125 80.6875 19.398438 81.136719 19.699219 C 81.582031 19.996094 82.015625 20.316406 82.433594 20.65625 C 82.851562 20.996094 83.25 21.359375 83.632812 21.738281 C 84.011719 22.121094 84.375 22.515625 84.71875 22.933594 C 85.058594 23.347656 85.382812 23.78125 85.679688 24.230469 C 85.980469 24.675781 86.257812 25.136719 86.511719 25.613281 C 86.769531 26.085938 87 26.574219 87.207031 27.070312 C 87.414062 27.570312 87.59375 28.074219 87.753906 28.589844 C 87.910156 29.105469 88.042969 29.628906 88.148438 30.15625 C 88.253906 30.683594 88.332031 31.21875 88.386719 31.753906 C 88.441406 32.289062 88.46875 32.828125 88.46875 33.367188 L 88.46875 69.882812 C 88.46875 70.421875 88.441406 70.957031 88.386719 71.496094 C 88.332031 72.03125 88.253906 72.5625 88.148438 73.09375 C 88.042969 73.621094 87.910156 74.140625 87.753906 74.65625 C 87.59375 75.171875 87.414062 75.679688 87.207031 76.175781 C 87 76.675781 86.769531 77.160156 86.511719 77.636719 C 86.257812 78.109375 85.980469 78.574219 85.679688 79.019531 C 85.382812 79.46875 85.058594 79.898438 84.71875 80.316406 C 84.375 80.730469 84.011719 81.128906 83.632812 81.511719 C 83.25 81.890625 82.851562 82.25 82.433594 82.59375 C 82.015625 82.933594 81.582031 83.253906 81.136719 83.550781 C 80.6875 83.851562 80.226562 84.125 79.75 84.378906 C 79.273438 84.632812 78.789062 84.859375 78.289062 85.066406 C 77.792969 85.269531 77.285156 85.449219 76.769531 85.605469 C 76.253906 85.761719 75.730469 85.890625 75.203125 85.996094 C 74.675781 86.097656 74.144531 86.175781 73.605469 86.226562 C 73.070312 86.277344 72.535156 86.304688 71.996094 86.300781 Z M 24.722656 20.660156 C 23.882812 20.652344 23.050781 20.726562 22.222656 20.886719 C 21.398438 21.042969 20.597656 21.277344 19.816406 21.59375 C 19.039062 21.910156 18.296875 22.296875 17.59375 22.757812 C 16.894531 23.21875 16.242188 23.746094 15.644531 24.335938 C 15.042969 24.925781 14.507812 25.570312 14.035156 26.265625 C 13.566406 26.960938 13.164062 27.695312 12.839844 28.472656 C 12.511719 29.246094 12.261719 30.046875 12.09375 30.871094 C 11.921875 31.695312 11.835938 32.527344 11.828125 33.367188 L 11.828125 69.882812 C 11.832031 70.726562 11.917969 71.558594 12.082031 72.386719 C 12.25 73.214844 12.496094 74.015625 12.820312 74.792969 C 13.148438 75.574219 13.546875 76.3125 14.015625 77.011719 C 14.488281 77.710938 15.023438 78.355469 15.625 78.949219 C 16.222656 79.542969 16.875 80.070312 17.578125 80.535156 C 18.28125 81 19.023438 81.390625 19.804688 81.707031 C 20.585938 82.023438 21.390625 82.261719 22.21875 82.421875 C 23.042969 82.578125 23.878906 82.652344 24.722656 82.644531 L 71.996094 82.644531 C 72.835938 82.652344 73.671875 82.578125 74.5 82.421875 C 75.328125 82.261719 76.132812 82.023438 76.914062 81.707031 C 77.695312 81.390625 78.4375 81 79.140625 80.535156 C 79.84375 80.070312 80.496094 79.542969 81.09375 78.949219 C 81.695312 78.355469 82.230469 77.710938 82.699219 77.011719 C 83.171875 76.3125 83.570312 75.574219 83.894531 74.792969 C 84.222656 74.015625 84.46875 73.214844 84.632812 72.386719 C 84.800781 71.558594 84.886719 70.726562 84.886719 69.882812 L 84.886719 33.367188 C 84.882812 32.527344 84.792969 31.695312 84.625 30.871094 C 84.457031 30.046875 84.207031 29.246094 83.878906 28.472656 C 83.550781 27.695312 83.152344 26.960938 82.679688 26.265625 C 82.207031 25.570312 81.671875 24.925781 81.074219 24.335938 C 80.476562 23.746094 79.824219 23.21875 79.121094 22.757812 C 78.421875 22.296875 77.679688 21.910156 76.902344 21.59375 C 76.121094 21.277344 75.320312 21.042969 74.492188 20.886719 C 73.667969 20.726562 72.835938 20.652344 71.996094 20.660156 Z M 48.359375 75.34375 C 47.761719 75.34375 47.164062 75.316406 46.570312 75.257812 C 45.976562 75.199219 45.386719 75.113281 44.800781 74.996094 C 44.214844 74.878906 43.636719 74.734375 43.0625 74.558594 C 42.492188 74.386719 41.929688 74.183594 41.378906 73.957031 C 40.828125 73.726562 40.289062 73.472656 39.761719 73.1875 C 39.234375 72.90625 38.722656 72.601562 38.226562 72.269531 C 37.730469 71.933594 37.25 71.578125 36.789062 71.199219 C 36.328125 70.820312 35.886719 70.417969 35.460938 69.996094 C 35.039062 69.574219 34.640625 69.132812 34.261719 68.667969 C 33.882812 68.207031 33.527344 67.726562 33.195312 67.230469 C 32.863281 66.730469 32.554688 66.21875 32.273438 65.691406 C 31.992188 65.164062 31.738281 64.625 31.511719 64.070312 C 31.28125 63.519531 31.082031 62.957031 30.90625 62.382812 C 30.734375 61.8125 30.589844 61.234375 30.472656 60.644531 C 30.355469 60.058594 30.269531 59.46875 30.210938 58.875 C 30.152344 58.277344 30.121094 57.683594 30.125 57.082031 C 30.125 56.484375 30.152344 55.890625 30.210938 55.292969 C 30.269531 54.699219 30.359375 54.109375 30.472656 53.523438 C 30.589844 52.933594 30.738281 52.355469 30.910156 51.785156 C 31.082031 51.210938 31.285156 50.648438 31.511719 50.097656 C 31.742188 49.542969 31.996094 49.003906 32.28125 48.476562 C 32.5625 47.949219 32.867188 47.4375 33.199219 46.941406 C 33.53125 46.441406 33.886719 45.964844 34.265625 45.5 C 34.644531 45.039062 35.046875 44.597656 35.46875 44.175781 C 35.890625 43.75 36.335938 43.351562 36.796875 42.972656 C 37.257812 42.59375 37.738281 42.234375 38.234375 41.902344 C 38.730469 41.570312 39.242188 41.265625 39.769531 40.984375 C 40.296875 40.703125 40.835938 40.445312 41.386719 40.21875 C 41.941406 39.988281 42.5 39.789062 43.074219 39.617188 C 43.644531 39.441406 44.222656 39.296875 44.808594 39.179688 C 45.394531 39.0625 45.984375 38.976562 46.582031 38.917969 C 47.175781 38.859375 47.769531 38.832031 48.367188 38.832031 C 48.964844 38.832031 49.5625 38.863281 50.15625 38.921875 C 50.75 38.980469 51.339844 39.066406 51.925781 39.183594 C 52.511719 39.300781 53.089844 39.445312 53.664062 39.621094 C 54.234375 39.792969 54.796875 39.996094 55.347656 40.226562 C 55.898438 40.453125 56.4375 40.710938 56.964844 40.992188 C 57.492188 41.273438 58.003906 41.582031 58.5 41.914062 C 58.996094 42.246094 59.476562 42.601562 59.9375 42.984375 C 60.398438 43.363281 60.839844 43.765625 61.261719 44.1875 C 61.683594 44.609375 62.085938 45.054688 62.464844 45.515625 C 62.839844 45.980469 63.195312 46.457031 63.527344 46.957031 C 63.859375 47.453125 64.167969 47.964844 64.449219 48.492188 C 64.730469 49.019531 64.984375 49.5625 65.210938 50.113281 C 65.441406 50.667969 65.640625 51.230469 65.8125 51.800781 C 65.988281 52.375 66.132812 52.953125 66.246094 53.539062 C 66.363281 54.128906 66.449219 54.71875 66.507812 55.3125 C 66.566406 55.910156 66.59375 56.503906 66.59375 57.101562 C 66.59375 57.699219 66.5625 58.296875 66.503906 58.890625 C 66.445312 59.484375 66.355469 60.074219 66.238281 60.660156 C 66.121094 61.246094 65.976562 61.828125 65.804688 62.398438 C 65.628906 62.96875 65.425781 63.53125 65.199219 64.082031 C 64.96875 64.636719 64.714844 65.175781 64.433594 65.699219 C 64.152344 66.226562 63.84375 66.738281 63.511719 67.234375 C 63.179688 67.730469 62.824219 68.210938 62.445312 68.671875 C 62.066406 69.136719 61.667969 69.578125 61.246094 70 C 60.820312 70.421875 60.378906 70.820312 59.917969 71.199219 C 59.457031 71.578125 58.980469 71.933594 58.480469 72.265625 C 57.984375 72.597656 57.476562 72.90625 56.949219 73.1875 C 56.421875 73.46875 55.882812 73.726562 55.332031 73.953125 C 54.78125 74.183594 54.21875 74.382812 53.648438 74.558594 C 53.078125 74.730469 52.5 74.875 51.914062 74.992188 C 51.328125 75.109375 50.738281 75.199219 50.144531 75.257812 C 49.550781 75.316406 48.957031 75.34375 48.359375 75.34375 Z M 48.359375 42.488281 C 47.402344 42.488281 46.453125 42.582031 45.515625 42.769531 C 44.574219 42.957031 43.664062 43.234375 42.78125 43.601562 C 41.894531 43.964844 41.054688 44.414062 40.257812 44.949219 C 39.460938 45.480469 38.726562 46.085938 38.050781 46.761719 C 37.371094 47.441406 36.765625 48.179688 36.234375 48.976562 C 35.703125 49.773438 35.253906 50.613281 34.886719 51.5 C 34.519531 52.382812 34.242188 53.296875 34.058594 54.234375 C 33.871094 55.175781 33.777344 56.125 33.777344 57.082031 C 33.777344 58.042969 33.867188 58.992188 34.054688 59.929688 C 34.242188 60.871094 34.519531 61.785156 34.882812 62.671875 C 35.25 63.554688 35.699219 64.398438 36.230469 65.195312 C 36.761719 65.992188 37.367188 66.730469 38.042969 67.40625 C 38.71875 68.085938 39.453125 68.691406 40.25 69.222656 C 41.046875 69.757812 41.886719 70.207031 42.769531 70.574219 C 43.65625 70.941406 44.566406 71.21875 45.503906 71.40625 C 46.445312 71.59375 47.390625 71.6875 48.347656 71.6875 C 49.308594 71.6875 50.253906 71.597656 51.195312 71.410156 C 52.132812 71.222656 53.042969 70.949219 53.929688 70.582031 C 54.8125 70.214844 55.65625 69.765625 56.453125 69.234375 C 57.246094 68.703125 57.984375 68.097656 58.664062 67.421875 C 59.339844 66.742188 59.945312 66.007812 60.476562 65.210938 C 61.007812 64.414062 61.460938 63.574219 61.828125 62.6875 C 62.195312 61.800781 62.472656 60.890625 62.660156 59.949219 C 62.847656 59.011719 62.941406 58.0625 62.941406 57.101562 C 62.941406 56.144531 62.847656 55.195312 62.660156 54.253906 C 62.476562 53.3125 62.199219 52.398438 61.832031 51.515625 C 61.464844 50.628906 61.015625 49.785156 60.484375 48.988281 C 59.953125 48.191406 59.347656 47.453125 58.671875 46.773438 C 57.996094 46.097656 57.257812 45.488281 56.460938 44.957031 C 55.664062 44.421875 54.824219 43.972656 53.941406 43.605469 C 53.054688 43.238281 52.144531 42.960938 51.203125 42.773438 C 50.265625 42.585938 49.316406 42.488281 48.359375 42.488281 Z M 42.886719 20.660156 L 21.011719 20.660156 C 20.769531 20.660156 20.539062 20.613281 20.316406 20.523438 C 20.09375 20.429688 19.894531 20.296875 19.726562 20.128906 C 19.554688 19.957031 19.425781 19.757812 19.332031 19.535156 C 19.238281 19.3125 19.191406 19.082031 19.191406 18.839844 L 19.191406 12.15625 C 19.191406 11.914062 19.238281 11.683594 19.332031 11.460938 C 19.425781 11.234375 19.554688 11.039062 19.726562 10.867188 C 19.898438 10.699219 20.09375 10.566406 20.316406 10.472656 C 20.539062 10.382812 20.769531 10.335938 21.011719 10.335938 L 42.886719 10.335938 C 43.132812 10.324219 43.375 10.363281 43.605469 10.453125 C 43.835938 10.539062 44.042969 10.671875 44.21875 10.84375 C 44.398438 11.015625 44.535156 11.214844 44.632812 11.441406 C 44.730469 11.671875 44.777344 11.910156 44.777344 12.15625 L 44.777344 18.78125 C 44.785156 19.035156 44.742188 19.277344 44.648438 19.515625 C 44.554688 19.75 44.421875 19.957031 44.242188 20.132812 C 44.0625 20.3125 43.855469 20.445312 43.617188 20.539062 C 43.382812 20.628906 43.140625 20.671875 42.886719 20.660156 Z M 22.832031 17.003906 L 41.066406 17.003906 L 41.066406 13.976562 L 22.832031 13.976562 Z M 75.707031 42.488281 L 64.832031 42.488281 C 64.589844 42.5 64.359375 42.460938 64.128906 42.378906 C 63.902344 42.292969 63.703125 42.171875 63.523438 42.007812 C 63.347656 41.84375 63.207031 41.652344 63.105469 41.429688 C 63.007812 41.210938 62.949219 40.980469 62.941406 40.738281 L 62.941406 29.726562 C 62.929688 29.46875 62.972656 29.226562 63.066406 28.988281 C 63.15625 28.75 63.292969 28.542969 63.472656 28.363281 C 63.652344 28.183594 63.859375 28.046875 64.097656 27.957031 C 64.332031 27.863281 64.578125 27.820312 64.832031 27.832031 L 75.777344 27.832031 C 76.019531 27.832031 76.25 27.878906 76.472656 27.96875 C 76.695312 28.0625 76.894531 28.195312 77.0625 28.363281 C 77.234375 28.535156 77.367188 28.734375 77.457031 28.957031 C 77.550781 29.179688 77.597656 29.410156 77.597656 29.652344 L 77.597656 40.738281 C 77.585938 40.980469 77.53125 41.210938 77.429688 41.429688 C 77.328125 41.652344 77.191406 41.84375 77.011719 42.007812 C 76.835938 42.171875 76.632812 42.292969 76.40625 42.378906 C 76.179688 42.460938 75.945312 42.5 75.707031 42.488281 Z M 66.59375 38.832031 L 73.886719 38.832031 L 73.886719 31.546875 L 66.59375 31.546875 L 66.59375 38.847656 Z M 48.359375 64.402344 C 47.878906 64.402344 47.40625 64.355469 46.9375 64.261719 C 46.46875 64.167969 46.011719 64.03125 45.570312 63.847656 C 45.125 63.664062 44.707031 63.4375 44.308594 63.171875 C 43.910156 62.90625 43.542969 62.605469 43.203125 62.265625 C 42.863281 61.925781 42.5625 61.558594 42.296875 61.160156 C 42.03125 60.761719 41.804688 60.339844 41.621094 59.898438 C 41.4375 59.453125 41.300781 58.996094 41.207031 58.527344 C 41.113281 58.058594 41.066406 57.582031 41.066406 57.101562 C 41.066406 56.625 41.113281 56.148438 41.207031 55.679688 C 41.300781 55.207031 41.4375 54.753906 41.621094 54.308594 C 41.804688 53.867188 42.03125 53.445312 42.296875 53.046875 C 42.5625 52.648438 42.863281 52.28125 43.203125 51.941406 C 43.542969 51.601562 43.910156 51.300781 44.308594 51.035156 C 44.707031 50.765625 45.125 50.542969 45.570312 50.359375 C 46.011719 50.175781 46.46875 50.035156 46.9375 49.941406 C 47.40625 49.851562 47.878906 49.804688 48.359375 49.804688 C 48.835938 49.804688 49.3125 49.851562 49.78125 49.941406 C 50.25 50.035156 50.707031 50.175781 51.148438 50.359375 C 51.589844 50.542969 52.011719 50.765625 52.410156 51.035156 C 52.808594 51.300781 53.175781 51.601562 53.515625 51.941406 C 53.851562 52.28125 54.15625 52.648438 54.421875 53.046875 C 54.6875 53.445312 54.910156 53.867188 55.09375 54.308594 C 55.277344 54.753906 55.417969 55.207031 55.511719 55.679688 C 55.605469 56.148438 55.648438 56.625 55.648438 57.101562 C 55.648438 57.582031 55.601562 58.054688 55.507812 58.527344 C 55.414062 58.996094 55.273438 59.453125 55.089844 59.894531 C 54.90625 60.335938 54.683594 60.757812 54.417969 61.15625 C 54.152344 61.554688 53.847656 61.921875 53.511719 62.261719 C 53.171875 62.597656 52.804688 62.902344 52.40625 63.167969 C 52.007812 63.433594 51.589844 63.660156 51.148438 63.84375 C 50.707031 64.027344 50.25 64.167969 49.78125 64.261719 C 49.3125 64.355469 48.835938 64.402344 48.359375 64.402344 Z M 48.359375 53.445312 C 47.871094 53.4375 47.402344 53.519531 46.949219 53.699219 C 46.496094 53.878906 46.097656 54.136719 45.746094 54.472656 C 45.398438 54.8125 45.125 55.207031 44.933594 55.652344 C 44.742188 56.101562 44.640625 56.566406 44.632812 57.054688 C 44.628906 57.542969 44.714844 58.011719 44.898438 58.460938 C 45.078125 58.914062 45.339844 59.316406 45.679688 59.664062 C 46.019531 60.011719 46.414062 60.277344 46.863281 60.46875 C 47.308594 60.660156 47.777344 60.757812 48.261719 60.757812 C 48.75 60.761719 49.21875 60.671875 49.667969 60.488281 C 50.117188 60.304688 50.515625 60.039062 50.863281 59.695312 C 51.207031 59.355469 51.472656 58.957031 51.660156 58.507812 C 51.847656 58.058594 51.941406 57.589844 51.941406 57.101562 C 51.941406 56.625 51.851562 56.164062 51.667969 55.71875 C 51.488281 55.277344 51.230469 54.882812 50.894531 54.542969 C 50.5625 54.199219 50.175781 53.933594 49.734375 53.746094 C 49.296875 53.554688 48.835938 53.457031 48.359375 53.445312 Z M 48.359375 53.445312 " fill-opacity="1" fill-rule="nonzero"/></svg>