<svg xmlns="http://www.w3.org/2000/svg" xmlns:xlink="http://www.w3.org/1999/xlink" version="1.1" x="0px" y="0px" viewBox="0 0 100 125" enable-background="new 0 0 100 100" xml:space="preserve"><g><path d="M50,25.931c-5.081,0-9.216-4.134-9.216-9.216c0-5.081,4.134-9.215,9.216-9.215c5.082,0,9.216,4.134,9.216,9.215   C59.216,21.797,55.082,25.931,50,25.931z M50,9.918c-3.748,0-6.797,3.049-6.797,6.797s3.049,6.798,6.797,6.798   s6.798-3.05,6.798-6.798S53.748,9.918,50,9.918z"/><path d="M53.422,92.5h-1.258c-0.668,0-1.209-0.541-1.209-1.209V69.949h-1.911v21.342c0,0.668-0.541,1.209-1.209,1.209h-1.258   c-4.667,0-8.464-3.797-8.464-8.464l-0.283-21.121l-2.313-25.094h-1.14V61.66c0,0.406-0.204,0.785-0.543,1.009   c-0.339,0.225-0.768,0.263-1.141,0.103c-3.127-1.337-5.148-4.391-5.148-7.781V35.675c0-4.667,3.797-8.464,8.464-8.464H63.99   c4.667,0,8.464,3.797,8.464,8.464v19.316c0,3.39-2.02,6.444-5.147,7.781c-0.373,0.161-0.802,0.122-1.141-0.103   c-0.339-0.224-0.543-0.603-0.543-1.009V37.821h-1.14L62.17,62.914l-0.283,21.137C61.887,88.703,58.09,92.5,53.422,92.5z    M53.374,90.082h0.048c3.334,0,6.046-2.712,6.046-6.046l0.284-21.201c0.001-0.032,0.002-0.064,0.005-0.095l2.418-26.239   c0.057-0.622,0.579-1.098,1.204-1.098h3.452c0.668,0,1.209,0.541,1.209,1.209v22.861c1.249-1.127,1.995-2.742,1.995-4.481V35.675   c0-3.334-2.712-6.046-6.046-6.046H36.01c-3.334,0-6.046,2.712-6.046,6.046v19.316c0,1.739,0.746,3.355,1.995,4.481V36.612   c0-0.668,0.541-1.209,1.209-1.209h3.452c0.625,0,1.147,0.476,1.204,1.098l2.418,26.239c0.003,0.031,0.004,0.063,0.005,0.095   l0.284,21.185c0,3.349,2.712,6.062,6.046,6.062h0.048V68.74c0-0.668,0.541-1.209,1.209-1.209h4.329   c0.668,0,1.209,0.541,1.209,1.209V90.082z"/></g></svg>