<svg xmlns="http://www.w3.org/2000/svg" xmlns:xlink="http://www.w3.org/1999/xlink" width="128" zoomAndPan="magnify" viewBox="0 0 96 95.999999" height="128" preserveAspectRatio="xMidYMid meet" version="1.0"><path fill="#000000" d="M 48 24.894531 C 43.121094 24.894531 39.152344 20.925781 39.152344 16.046875 C 39.152344 11.167969 43.121094 7.199219 48 7.199219 C 52.878906 7.199219 56.847656 11.167969 56.847656 16.046875 C 56.847656 20.925781 52.878906 24.894531 48 24.894531 Z M 48 9.519531 C 44.402344 9.519531 41.476562 12.449219 41.476562 16.046875 C 41.476562 19.644531 44.402344 22.574219 48 22.574219 C 51.597656 22.574219 54.527344 19.644531 54.527344 16.046875 C 54.527344 12.449219 51.597656 9.519531 48 9.519531 Z M 48 9.519531 " fill-opacity="1" fill-rule="nonzero"/><path fill="#000000" d="M 51.285156 88.800781 L 50.078125 88.800781 C 49.4375 88.800781 48.917969 88.28125 48.917969 87.640625 L 48.917969 67.152344 L 47.082031 67.152344 L 47.082031 87.640625 C 47.082031 88.28125 46.5625 88.800781 45.921875 88.800781 L 44.714844 88.800781 C 40.234375 88.800781 36.589844 85.15625 36.589844 80.675781 L 36.316406 60.398438 L 34.097656 36.308594 L 33 36.308594 L 33 59.195312 C 33 59.582031 32.804688 59.945312 32.480469 60.164062 C 32.15625 60.378906 31.742188 60.414062 31.386719 60.261719 C 28.382812 58.976562 26.441406 56.046875 26.441406 52.792969 L 26.441406 34.246094 C 26.441406 29.769531 30.089844 26.121094 34.570312 26.121094 L 61.429688 26.121094 C 65.910156 26.121094 69.554688 29.769531 69.554688 34.246094 L 69.554688 52.792969 C 69.554688 56.046875 67.617188 58.976562 64.613281 60.261719 C 64.257812 60.414062 63.84375 60.378906 63.519531 60.164062 C 63.195312 59.945312 63 59.582031 63 59.195312 L 63 36.308594 L 61.902344 36.308594 L 59.683594 60.398438 L 59.410156 80.6875 C 59.410156 85.15625 55.765625 88.800781 51.285156 88.800781 Z M 51.238281 86.480469 L 51.285156 86.480469 C 54.484375 86.480469 57.089844 83.875 57.089844 80.675781 L 57.363281 60.320312 C 57.363281 60.289062 57.363281 60.261719 57.367188 60.230469 L 59.6875 35.039062 C 59.742188 34.445312 60.242188 33.988281 60.84375 33.988281 L 64.15625 33.988281 C 64.800781 33.988281 65.320312 34.507812 65.320312 35.148438 L 65.320312 57.09375 C 66.515625 56.011719 67.234375 54.460938 67.234375 52.792969 L 67.234375 34.246094 C 67.234375 31.046875 64.628906 28.445312 61.429688 28.445312 L 34.570312 28.445312 C 31.367188 28.445312 28.765625 31.046875 28.765625 34.246094 L 28.765625 52.792969 C 28.765625 54.460938 29.480469 56.011719 30.679688 57.09375 L 30.679688 35.148438 C 30.679688 34.507812 31.199219 33.988281 31.839844 33.988281 L 35.15625 33.988281 C 35.753906 33.988281 36.257812 34.445312 36.3125 35.039062 L 38.632812 60.230469 C 38.636719 60.261719 38.636719 60.289062 38.636719 60.320312 L 38.910156 80.660156 C 38.910156 83.875 41.511719 86.480469 44.714844 86.480469 L 44.761719 86.480469 L 44.761719 65.992188 C 44.761719 65.347656 45.28125 64.828125 45.921875 64.828125 L 50.078125 64.828125 C 50.71875 64.828125 51.238281 65.347656 51.238281 65.992188 Z M 51.238281 86.480469 " fill-opacity="1" fill-rule="nonzero"/></svg>