<svg xmlns="http://www.w3.org/2000/svg" xmlns:xlink="http://www.w3.org/1999/xlink" width="128" zoomAndPan="magnify" viewBox="0 0 96 95.999999" height="128" preserveAspectRatio="xMidYMid meet" version="1.0"><path fill="#000000" d="M 90.0625 39.070312 C 89.785156 37.902344 89.460938 36.746094 89.085938 35.601562 C 88.714844 34.460938 88.292969 33.335938 87.824219 32.226562 C 87.355469 31.121094 86.84375 30.035156 86.285156 28.972656 C 85.722656 27.90625 85.121094 26.867188 84.472656 25.855469 C 83.828125 24.84375 83.140625 23.859375 82.410156 22.902344 C 81.679688 21.949219 80.910156 21.023438 80.105469 20.132812 C 79.296875 19.242188 78.453125 18.386719 77.574219 17.566406 C 76.695312 16.75 75.785156 15.96875 74.839844 15.222656 C 73.894531 14.480469 72.921875 13.777344 71.917969 13.117188 C 70.914062 12.457031 69.882812 11.839844 68.828125 11.265625 C 67.769531 10.691406 66.691406 10.160156 65.59375 9.679688 C 64.492188 9.195312 63.375 8.757812 62.234375 8.367188 C 61.097656 7.976562 59.949219 7.636719 58.78125 7.34375 C 57.617188 7.050781 56.441406 6.808594 55.253906 6.613281 C 54.066406 6.421875 52.875 6.277344 51.675781 6.183594 C 50.476562 6.089844 49.277344 6.046875 48.074219 6.054688 C 46.6875 6.0625 45.304688 6.136719 43.921875 6.277344 C 42.542969 6.417969 41.171875 6.628906 39.8125 6.90625 C 38.449219 7.179688 37.105469 7.523438 35.78125 7.933594 C 34.453125 8.339844 33.148438 8.8125 31.871094 9.351562 C 30.589844 9.886719 29.339844 10.484375 28.117188 11.144531 C 26.894531 11.804688 25.710938 12.523438 24.558594 13.300781 C 23.410156 14.074219 22.296875 14.90625 21.230469 15.789062 C 20.160156 16.675781 19.136719 17.613281 18.160156 18.597656 C 17.179688 19.582031 16.253906 20.613281 15.378906 21.691406 C 14.503906 22.769531 13.683594 23.886719 12.914062 25.042969 C 12.148438 26.199219 11.441406 27.394531 10.792969 28.621094 C 10.144531 29.847656 9.554688 31.101562 9.03125 32.386719 C 8.503906 33.671875 8.042969 34.980469 7.644531 36.308594 C 7.25 37.640625 6.917969 38.984375 6.652344 40.347656 C 6.386719 41.710938 6.191406 43.082031 6.058594 44.464844 C 5.929688 45.847656 5.867188 47.234375 5.875 48.621094 C 5.878906 50.007812 5.953125 51.394531 6.09375 52.773438 C 6.238281 54.15625 6.445312 55.527344 6.722656 56.886719 C 7 58.246094 7.34375 59.589844 7.75 60.917969 C 8.160156 62.242188 8.632812 63.546875 9.167969 64.828125 C 9.707031 66.105469 10.304688 67.359375 10.964844 68.578125 C 11.625 69.800781 12.339844 70.988281 13.117188 72.136719 C 13.894531 73.289062 14.722656 74.398438 15.609375 75.46875 C 16.496094 76.539062 17.429688 77.5625 18.414062 78.539062 C 19.402344 79.515625 20.433594 80.441406 21.511719 81.320312 C 22.585938 82.195312 23.703125 83.015625 24.859375 83.78125 C 26.019531 84.546875 27.210938 85.253906 28.4375 85.90625 C 29.664062 86.554688 30.921875 87.140625 32.207031 87.667969 C 33.492188 88.191406 34.796875 88.65625 36.128906 89.050781 C 37.457031 89.449219 38.804688 89.78125 40.167969 90.046875 C 41.53125 90.308594 42.902344 90.507812 44.285156 90.636719 C 45.667969 90.769531 47.050781 90.828125 48.441406 90.824219 C 49.273438 90.941406 50.101562 90.917969 50.925781 90.75 C 51.753906 90.585938 52.527344 90.289062 53.25 89.855469 C 53.972656 89.425781 54.601562 88.886719 55.140625 88.238281 C 55.679688 87.59375 56.09375 86.875 56.386719 86.085938 C 57.273438 82.726562 55.042969 79.074219 50.566406 76.546875 C 50.179688 76.355469 49.835938 76.109375 49.53125 75.804688 C 49.226562 75.503906 48.976562 75.160156 48.785156 74.773438 C 48.59375 74.390625 48.464844 73.984375 48.40625 73.558594 C 48.347656 73.132812 48.359375 72.707031 48.441406 72.285156 C 49.078125 69.863281 52.453125 68.402344 57.460938 68.402344 L 66.4375 68.402344 C 68.289062 68.449219 70.128906 68.300781 71.949219 67.964844 C 73.769531 67.625 75.535156 67.101562 77.246094 66.394531 C 78.960938 65.6875 80.578125 64.808594 82.105469 63.761719 C 83.636719 62.714844 85.039062 61.519531 86.316406 60.179688 C 87.40625 58.675781 88.316406 57.070312 89.046875 55.363281 C 89.773438 53.652344 90.296875 51.886719 90.621094 50.054688 C 90.949219 48.226562 91.0625 46.386719 90.96875 44.53125 C 90.871094 42.675781 90.570312 40.855469 90.0625 39.070312 Z M 83.199219 57.617188 C 82.113281 58.730469 80.921875 59.71875 79.628906 60.582031 C 78.335938 61.445312 76.96875 62.167969 75.527344 62.746094 C 74.085938 63.328125 72.601562 63.753906 71.070312 64.027344 C 69.539062 64.300781 67.996094 64.410156 66.441406 64.363281 L 57.460938 64.363281 C 47.429688 64.363281 45.082031 69.207031 44.542969 71.257812 C 44.347656 72.113281 44.296875 72.972656 44.386719 73.84375 C 44.472656 74.714844 44.703125 75.550781 45.066406 76.347656 C 45.429688 77.140625 45.914062 77.859375 46.515625 78.496094 C 47.117188 79.132812 47.804688 79.652344 48.582031 80.0625 C 51.699219 81.828125 52.789062 83.890625 52.480469 85.058594 C 52.203125 86.125 50.652344 86.789062 48.445312 86.789062 C 47.25 86.777344 46.058594 86.714844 44.871094 86.59375 C 43.683594 86.472656 42.503906 86.296875 41.332031 86.070312 C 40.160156 85.839844 39.003906 85.554688 37.859375 85.214844 C 36.714844 84.878906 35.585938 84.484375 34.480469 84.042969 C 33.371094 83.597656 32.285156 83.105469 31.222656 82.558594 C 30.160156 82.015625 29.128906 81.421875 28.121094 80.78125 C 27.113281 80.136719 26.140625 79.453125 25.195312 78.71875 C 24.253906 77.988281 23.347656 77.210938 22.476562 76.394531 C 21.609375 75.578125 20.777344 74.722656 19.988281 73.828125 C 19.195312 72.933594 18.449219 72.003906 17.746094 71.039062 C 17.042969 70.074219 16.386719 69.078125 15.777344 68.050781 C 15.164062 67.027344 14.605469 65.972656 14.089844 64.894531 C 13.578125 63.816406 13.117188 62.71875 12.707031 61.597656 C 12.300781 60.476562 11.941406 59.335938 11.640625 58.183594 C 11.335938 57.027344 11.085938 55.863281 10.894531 54.683594 C 10.699219 53.507812 10.558594 52.324219 10.476562 51.132812 C 10.390625 49.941406 10.363281 48.75 10.390625 47.554688 C 10.417969 46.363281 10.503906 45.171875 10.640625 43.988281 C 10.78125 42.800781 10.972656 41.625 11.222656 40.457031 C 11.46875 39.289062 11.773438 38.136719 12.128906 36.996094 C 12.484375 35.855469 12.894531 34.738281 13.355469 33.636719 C 13.816406 32.535156 14.328125 31.457031 14.886719 30.402344 C 15.449219 29.351562 16.058594 28.324219 16.714844 27.328125 C 17.371094 26.332031 18.074219 25.367188 18.820312 24.4375 C 19.570312 23.507812 20.359375 22.613281 21.1875 21.753906 C 22.019531 20.898438 22.886719 20.082031 23.796875 19.304688 C 24.703125 18.527344 25.644531 17.796875 26.617188 17.109375 C 27.59375 16.421875 28.597656 15.777344 29.632812 15.183594 C 30.671875 14.589844 31.730469 14.046875 32.816406 13.550781 C 33.902344 13.054688 35.007812 12.609375 36.136719 12.21875 C 37.265625 11.828125 38.40625 11.488281 39.566406 11.203125 C 40.726562 10.917969 41.894531 10.6875 43.078125 10.511719 C 44.257812 10.335938 45.445312 10.214844 46.636719 10.148438 C 47.828125 10.085938 49.019531 10.074219 50.214844 10.121094 C 51.40625 10.167969 52.59375 10.269531 53.777344 10.425781 C 54.960938 10.582031 56.132812 10.796875 57.296875 11.0625 C 58.460938 11.328125 59.609375 11.648438 60.742188 12.023438 C 61.878906 12.398438 62.992188 12.824219 64.085938 13.300781 C 65.179688 13.777344 66.246094 14.308594 67.292969 14.886719 C 68.335938 15.464844 69.351562 16.089844 70.339844 16.761719 C 71.324219 17.433594 72.277344 18.152344 73.195312 18.914062 C 74.117188 19.675781 74.996094 20.476562 75.839844 21.320312 C 76.6875 22.164062 77.488281 23.046875 78.25 23.964844 C 79.011719 24.882812 79.730469 25.835938 80.402344 26.824219 C 81.074219 27.808594 81.703125 28.824219 82.28125 29.867188 C 82.859375 30.914062 83.386719 31.980469 83.863281 33.074219 C 84.34375 34.167969 84.769531 35.28125 85.144531 36.417969 C 85.515625 37.550781 85.839844 38.699219 86.105469 39.863281 C 86.546875 41.355469 86.816406 42.878906 86.914062 44.433594 C 87.011719 45.988281 86.933594 47.535156 86.679688 49.074219 C 86.429688 50.609375 86.007812 52.101562 85.421875 53.542969 C 84.832031 54.984375 84.089844 56.34375 83.195312 57.617188 Z M 72.730469 40.367188 C 72.730469 40.628906 72.707031 40.890625 72.65625 41.152344 C 72.601562 41.410156 72.527344 41.660156 72.425781 41.90625 C 72.324219 42.148438 72.203125 42.382812 72.054688 42.601562 C 71.910156 42.820312 71.742188 43.023438 71.558594 43.210938 C 71.371094 43.398438 71.167969 43.566406 70.949219 43.714844 C 70.730469 43.859375 70.5 43.984375 70.257812 44.089844 C 70.011719 44.191406 69.761719 44.269531 69.503906 44.320312 C 69.246094 44.375 68.984375 44.402344 68.71875 44.402344 C 68.453125 44.402344 68.191406 44.378906 67.933594 44.328125 C 67.675781 44.28125 67.421875 44.207031 67.179688 44.105469 C 66.933594 44.007812 66.699219 43.886719 66.480469 43.738281 C 66.257812 43.59375 66.054688 43.429688 65.867188 43.246094 C 65.679688 43.058594 65.507812 42.859375 65.359375 42.640625 C 65.210938 42.421875 65.085938 42.191406 64.980469 41.949219 C 64.878906 41.707031 64.800781 41.457031 64.746094 41.199219 C 64.691406 40.9375 64.660156 40.679688 64.660156 40.414062 C 64.65625 40.148438 64.679688 39.886719 64.726562 39.628906 C 64.773438 39.367188 64.847656 39.117188 64.945312 38.871094 C 65.042969 38.625 65.164062 38.390625 65.308594 38.171875 C 65.449219 37.949219 65.613281 37.742188 65.796875 37.554688 C 65.980469 37.363281 66.183594 37.195312 66.398438 37.046875 C 66.617188 36.894531 66.847656 36.765625 67.089844 36.664062 C 67.332031 36.558594 67.582031 36.476562 67.839844 36.421875 C 68.097656 36.363281 68.359375 36.335938 68.621094 36.328125 L 68.703125 36.328125 C 68.96875 36.332031 69.230469 36.355469 69.488281 36.410156 C 69.75 36.460938 70 36.539062 70.246094 36.640625 C 70.488281 36.742188 70.722656 36.867188 70.941406 37.011719 C 71.160156 37.160156 71.367188 37.328125 71.550781 37.515625 C 71.738281 37.703125 71.90625 37.90625 72.054688 38.125 C 72.199219 38.347656 72.324219 38.578125 72.425781 38.824219 C 72.527344 39.066406 72.601562 39.320312 72.65625 39.578125 C 72.707031 39.839844 72.730469 40.101562 72.730469 40.367188 Z M 44.476562 28.257812 C 44.476562 28.519531 44.449219 28.78125 44.398438 29.039062 C 44.347656 29.300781 44.269531 29.550781 44.171875 29.796875 C 44.070312 30.039062 43.945312 30.269531 43.800781 30.492188 C 43.652344 30.710938 43.488281 30.914062 43.300781 31.101562 C 43.113281 31.289062 42.914062 31.457031 42.695312 31.605469 C 42.476562 31.75 42.242188 31.875 42 31.976562 C 41.757812 32.082031 41.503906 32.15625 41.246094 32.210938 C 40.988281 32.261719 40.726562 32.289062 40.460938 32.292969 C 40.199219 32.292969 39.9375 32.269531 39.675781 32.21875 C 39.417969 32.171875 39.167969 32.09375 38.921875 31.996094 C 38.675781 31.898438 38.445312 31.773438 38.222656 31.628906 C 38.003906 31.484375 37.796875 31.320312 37.609375 31.136719 C 37.421875 30.949219 37.253906 30.75 37.105469 30.53125 C 36.957031 30.3125 36.828125 30.082031 36.726562 29.839844 C 36.621094 29.597656 36.542969 29.347656 36.488281 29.085938 C 36.433594 28.828125 36.40625 28.566406 36.402344 28.304688 C 36.398438 28.039062 36.421875 27.777344 36.46875 27.519531 C 36.519531 27.257812 36.589844 27.007812 36.6875 26.761719 C 36.785156 26.515625 36.90625 26.28125 37.050781 26.0625 C 37.195312 25.839844 37.359375 25.632812 37.542969 25.445312 C 37.726562 25.253906 37.925781 25.085938 38.144531 24.933594 C 38.359375 24.785156 38.589844 24.65625 38.832031 24.550781 C 39.074219 24.449219 39.324219 24.367188 39.582031 24.3125 C 39.839844 24.253906 40.101562 24.222656 40.367188 24.21875 L 40.445312 24.21875 C 40.710938 24.21875 40.972656 24.246094 41.234375 24.296875 C 41.492188 24.351562 41.746094 24.425781 41.988281 24.53125 C 42.234375 24.632812 42.464844 24.753906 42.6875 24.902344 C 42.90625 25.050781 43.109375 25.21875 43.296875 25.40625 C 43.484375 25.59375 43.648438 25.796875 43.796875 26.015625 C 43.945312 26.238281 44.066406 26.46875 44.167969 26.714844 C 44.269531 26.957031 44.347656 27.210938 44.398438 27.46875 C 44.449219 27.730469 44.476562 27.992188 44.476562 28.257812 Z M 60.621094 28.257812 C 60.621094 28.519531 60.597656 28.78125 60.542969 29.039062 C 60.492188 29.300781 60.417969 29.550781 60.316406 29.796875 C 60.214844 30.039062 60.09375 30.269531 59.945312 30.492188 C 59.800781 30.710938 59.632812 30.914062 59.449219 31.101562 C 59.261719 31.289062 59.058594 31.457031 58.839844 31.605469 C 58.621094 31.75 58.390625 31.875 58.144531 31.976562 C 57.902344 32.082031 57.652344 32.15625 57.394531 32.210938 C 57.132812 32.261719 56.875 32.289062 56.609375 32.292969 C 56.34375 32.292969 56.082031 32.269531 55.824219 32.21875 C 55.566406 32.171875 55.3125 32.09375 55.066406 31.996094 C 54.824219 31.898438 54.589844 31.773438 54.371094 31.628906 C 54.148438 31.484375 53.945312 31.320312 53.757812 31.136719 C 53.566406 30.949219 53.398438 30.75 53.25 30.53125 C 53.101562 30.3125 52.976562 30.082031 52.871094 29.839844 C 52.769531 29.597656 52.691406 29.347656 52.636719 29.085938 C 52.582031 28.828125 52.550781 28.566406 52.550781 28.304688 C 52.546875 28.039062 52.570312 27.777344 52.617188 27.519531 C 52.664062 27.257812 52.738281 27.007812 52.835938 26.761719 C 52.933594 26.515625 53.054688 26.28125 53.199219 26.0625 C 53.339844 25.839844 53.503906 25.632812 53.6875 25.445312 C 53.871094 25.253906 54.074219 25.085938 54.289062 24.933594 C 54.507812 24.785156 54.738281 24.65625 54.980469 24.550781 C 55.222656 24.449219 55.472656 24.367188 55.730469 24.3125 C 55.988281 24.253906 56.25 24.222656 56.511719 24.21875 L 56.59375 24.21875 C 56.859375 24.21875 57.121094 24.246094 57.378906 24.296875 C 57.640625 24.351562 57.890625 24.425781 58.136719 24.53125 C 58.378906 24.632812 58.613281 24.753906 58.832031 24.902344 C 59.050781 25.050781 59.253906 25.21875 59.441406 25.40625 C 59.628906 25.59375 59.796875 25.796875 59.945312 26.015625 C 60.089844 26.238281 60.214844 26.46875 60.316406 26.714844 C 60.417969 26.957031 60.492188 27.210938 60.542969 27.46875 C 60.597656 27.730469 60.621094 27.992188 60.621094 28.257812 Z M 32.367188 40.367188 C 32.367188 40.628906 32.339844 40.890625 32.289062 41.152344 C 32.238281 41.410156 32.160156 41.660156 32.058594 41.90625 C 31.960938 42.148438 31.835938 42.382812 31.691406 42.601562 C 31.542969 42.820312 31.378906 43.023438 31.191406 43.210938 C 31.003906 43.398438 30.804688 43.566406 30.582031 43.714844 C 30.363281 43.859375 30.132812 43.984375 29.890625 44.089844 C 29.648438 44.191406 29.394531 44.269531 29.136719 44.320312 C 28.878906 44.375 28.617188 44.402344 28.351562 44.402344 C 28.089844 44.402344 27.828125 44.378906 27.566406 44.328125 C 27.308594 44.28125 27.054688 44.207031 26.8125 44.105469 C 26.566406 44.007812 26.335938 43.886719 26.113281 43.738281 C 25.894531 43.59375 25.6875 43.429688 25.5 43.246094 C 25.3125 43.058594 25.144531 42.859375 24.996094 42.640625 C 24.847656 42.421875 24.71875 42.191406 24.617188 41.949219 C 24.511719 41.707031 24.433594 41.457031 24.378906 41.199219 C 24.324219 40.9375 24.296875 40.679688 24.292969 40.414062 C 24.289062 40.148438 24.3125 39.886719 24.359375 39.628906 C 24.410156 39.367188 24.480469 39.117188 24.578125 38.871094 C 24.675781 38.625 24.796875 38.390625 24.941406 38.171875 C 25.085938 37.949219 25.25 37.742188 25.433594 37.554688 C 25.617188 37.363281 25.816406 37.195312 26.035156 37.046875 C 26.25 36.894531 26.480469 36.765625 26.722656 36.664062 C 26.964844 36.558594 27.214844 36.476562 27.472656 36.421875 C 27.730469 36.363281 27.992188 36.335938 28.257812 36.328125 L 28.335938 36.328125 C 28.601562 36.332031 28.863281 36.355469 29.125 36.410156 C 29.382812 36.460938 29.636719 36.539062 29.878906 36.640625 C 30.125 36.742188 30.355469 36.867188 30.574219 37.011719 C 30.796875 37.160156 31 37.328125 31.1875 37.515625 C 31.375 37.703125 31.539062 37.90625 31.6875 38.125 C 31.832031 38.347656 31.957031 38.578125 32.058594 38.824219 C 32.160156 39.066406 32.238281 39.320312 32.289062 39.578125 C 32.339844 39.839844 32.367188 40.101562 32.367188 40.367188 Z M 32.367188 56.511719 C 32.367188 56.777344 32.339844 57.039062 32.289062 57.296875 C 32.238281 57.554688 32.160156 57.808594 32.058594 58.050781 C 31.960938 58.296875 31.835938 58.527344 31.691406 58.746094 C 31.542969 58.96875 31.378906 59.171875 31.191406 59.359375 C 31.003906 59.546875 30.804688 59.710938 30.582031 59.859375 C 30.363281 60.007812 30.132812 60.132812 29.890625 60.234375 C 29.648438 60.335938 29.394531 60.414062 29.136719 60.46875 C 28.878906 60.519531 28.617188 60.546875 28.351562 60.546875 C 28.089844 60.550781 27.828125 60.527344 27.566406 60.476562 C 27.308594 60.425781 27.054688 60.351562 26.8125 60.253906 C 26.566406 60.152344 26.335938 60.03125 26.113281 59.886719 C 25.894531 59.742188 25.6875 59.578125 25.5 59.390625 C 25.3125 59.207031 25.144531 59.003906 24.996094 58.785156 C 24.847656 58.570312 24.71875 58.339844 24.617188 58.09375 C 24.511719 57.851562 24.433594 57.601562 24.378906 57.34375 C 24.324219 57.085938 24.296875 56.824219 24.292969 56.558594 C 24.289062 56.296875 24.3125 56.035156 24.359375 55.773438 C 24.410156 55.515625 24.480469 55.261719 24.578125 55.019531 C 24.675781 54.773438 24.796875 54.539062 24.941406 54.316406 C 25.085938 54.097656 25.25 53.890625 25.433594 53.699219 C 25.617188 53.511719 25.816406 53.339844 26.035156 53.191406 C 26.25 53.042969 26.480469 52.914062 26.722656 52.808594 C 26.964844 52.703125 27.214844 52.625 27.472656 52.566406 C 27.730469 52.511719 27.992188 52.480469 28.257812 52.476562 L 28.335938 52.476562 C 28.601562 52.476562 28.863281 52.503906 29.125 52.554688 C 29.382812 52.605469 29.636719 52.683594 29.878906 52.785156 C 30.125 52.886719 30.355469 53.011719 30.574219 53.160156 C 30.796875 53.304688 31 53.472656 31.1875 53.660156 C 31.375 53.847656 31.539062 54.050781 31.6875 54.273438 C 31.832031 54.492188 31.957031 54.726562 32.058594 54.96875 C 32.160156 55.214844 32.238281 55.464844 32.289062 55.726562 C 32.339844 55.984375 32.367188 56.246094 32.367188 56.511719 Z M 32.367188 56.511719 " fill-opacity="1" fill-rule="nonzero"/></svg>