<svg xmlns="http://www.w3.org/2000/svg" xmlns:xlink="http://www.w3.org/1999/xlink" width="128" zoomAndPan="magnify" viewBox="0 0 96 95.999999" height="128" preserveAspectRatio="xMidYMid meet" version="1.0"><defs><clipPath id="bb7278f373"><path d="M 74 15 L 95.425781 15 L 95.425781 37 L 74 37 Z M 74 15 " clip-rule="nonzero"/></clipPath><clipPath id="5ddf2e24fc"><path d="M 32 17 L 95.425781 17 L 95.425781 83 L 32 83 Z M 32 17 " clip-rule="nonzero"/></clipPath></defs><g clip-path="url(#bb7278f373)"><path fill="#000000" d="M 84.742188 15.777344 C 79.078125 15.777344 74.464844 20.375 74.464844 26.03125 C 74.464844 31.683594 79.078125 36.28125 84.742188 36.28125 C 90.414062 36.28125 95.027344 31.683594 95.027344 26.03125 C 95.027344 20.378906 90.417969 15.777344 84.742188 15.777344 Z M 84.742188 33.140625 C 80.808594 33.140625 77.613281 29.953125 77.613281 26.03125 C 77.613281 22.109375 80.808594 18.917969 84.742188 18.917969 C 88.675781 18.917969 91.878906 22.109375 91.878906 26.03125 C 91.878906 29.953125 88.675781 33.140625 84.742188 33.140625 Z M 84.742188 33.140625 " fill-opacity="1" fill-rule="nonzero"/></g><g clip-path="url(#5ddf2e24fc)"><path fill="#000000" d="M 93.21875 46.578125 C 88.148438 47.328125 81.816406 47.5 80.394531 46.46875 C 78.175781 44.855469 76.234375 40.777344 74.191406 36.464844 C 70.339844 28.363281 65.5625 18.277344 55.527344 18.277344 C 49.492188 18.277344 34.5625 17.628906 34.414062 17.625 C 34.335938 17.617188 34.265625 17.648438 34.191406 17.652344 C 34.101562 17.660156 34.019531 17.664062 33.929688 17.6875 C 33.777344 17.726562 33.648438 17.792969 33.519531 17.875 C 33.488281 17.894531 33.453125 17.898438 33.421875 17.917969 C 33.40625 17.929688 33.402344 17.945312 33.386719 17.953125 C 33.277344 18.039062 33.195312 18.140625 33.113281 18.25 C 33.0625 18.3125 33.011719 18.371094 32.972656 18.445312 C 32.925781 18.53125 32.902344 18.625 32.871094 18.722656 C 32.839844 18.824219 32.804688 18.925781 32.789062 19.035156 C 32.789062 19.0625 32.769531 19.089844 32.769531 19.121094 C 32.765625 19.191406 32.792969 19.253906 32.804688 19.320312 C 32.8125 19.429688 32.820312 19.53125 32.851562 19.636719 C 32.882812 19.742188 32.929688 19.832031 32.984375 19.925781 C 33.015625 19.984375 33.027344 20.054688 33.066406 20.113281 C 38.597656 27.746094 44.0625 30.945312 50.273438 30.136719 C 54.359375 29.625 55.46875 30.796875 56.5 32.402344 C 57.597656 34.121094 57.054688 34.769531 56.75 35.144531 L 48.492188 42.855469 C 45.847656 45.097656 44.410156 47.636719 44.21875 50.402344 C 43.996094 53.519531 45.382812 56.78125 48.335938 60.089844 C 50.09375 62.066406 54.613281 66.359375 57.140625 68.738281 L 43.433594 74.46875 C 42.632812 74.804688 42.257812 75.726562 42.589844 76.527344 C 42.84375 77.121094 43.429688 77.488281 44.042969 77.488281 C 44.25 77.488281 44.453125 77.445312 44.652344 77.367188 L 60.597656 70.695312 C 61.089844 70.488281 61.441406 70.050781 61.535156 69.523438 C 61.628906 68.996094 61.449219 68.460938 61.058594 68.097656 C 60.976562 68.023438 53.042969 60.644531 50.6875 58.007812 C 48.320312 55.355469 47.199219 52.867188 47.355469 50.621094 C 47.484375 48.734375 48.554688 46.925781 50.582031 45.199219 L 59.027344 37.300781 C 60.683594 35.324219 60.722656 33.171875 59.148438 30.714844 C 57.652344 28.371094 55.480469 26.296875 49.867188 27.023438 C 47.09375 27.355469 42.980469 27.011719 37.703125 20.90625 C 42.535156 21.097656 51.226562 21.421875 55.523438 21.421875 C 63.5625 21.421875 67.695312 30.128906 71.339844 37.808594 C 73.664062 42.699219 75.667969 46.921875 78.539062 49.011719 C 80.742188 50.613281 86.207031 50.464844 90.011719 50.121094 C 87.988281 52.519531 84.714844 55.660156 81.113281 56.140625 C 78.902344 56.453125 76.855469 55.675781 74.859375 53.824219 C 73.976562 53.003906 72.476562 50.621094 71.371094 48.882812 C 69.941406 46.617188 69.503906 45.949219 68.921875 45.605469 C 68.542969 45.371094 67.632812 44.828125 64.625 46.667969 C 63.230469 47.523438 58.703125 50.660156 59.019531 55.082031 C 59.265625 58.425781 62.894531 62.457031 66.605469 66.304688 L 67.363281 67.097656 C 68.566406 68.367188 69.113281 69.386719 69.003906 70.132812 C 68.886719 70.875 68.039062 71.492188 67.339844 71.882812 C 62.359375 74.671875 45.40625 79.714844 45.234375 79.769531 C 44.398438 80.015625 43.925781 80.890625 44.167969 81.722656 C 44.375 82.40625 45 82.84375 45.683594 82.84375 C 45.832031 82.84375 45.980469 82.820312 46.128906 82.777344 C 46.84375 82.566406 63.601562 77.582031 68.882812 74.617188 C 70.777344 73.554688 71.867188 72.203125 72.113281 70.601562 C 72.476562 68.234375 70.878906 66.238281 69.652344 64.941406 L 68.871094 64.125 C 66.75 61.925781 62.339844 57.34375 62.164062 54.859375 C 61.953125 51.988281 65.851562 49.414062 67.496094 48.6875 C 67.835938 49.183594 68.296875 49.917969 68.703125 50.554688 C 70.027344 52.648438 71.527344 55.023438 72.710938 56.125 C 75.410156 58.625 78.378906 59.679688 81.53125 59.25 C 88.929688 58.261719 94.546875 49.34375 94.78125 48.964844 C 95.101562 48.441406 95.09375 47.78125 94.757812 47.273438 C 94.433594 46.757812 93.832031 46.488281 93.21875 46.578125 Z M 93.21875 46.578125 " fill-opacity="1" fill-rule="nonzero"/></g><path fill="#000000" d="M 15.128906 76.585938 L 41.617188 55.65625 C 42.304688 55.113281 42.417969 54.128906 41.875 53.449219 C 41.332031 52.773438 40.339844 52.648438 39.660156 53.195312 L 13.171875 74.125 C 12.484375 74.664062 12.371094 75.652344 12.914062 76.328125 C 13.226562 76.722656 13.683594 76.925781 14.148438 76.925781 C 14.496094 76.925781 14.839844 76.816406 15.128906 76.585938 Z M 15.128906 76.585938 " fill-opacity="1" fill-rule="nonzero"/><path fill="#000000" d="M 47.222656 63.324219 C 46.820312 62.550781 45.863281 62.257812 45.097656 62.652344 L 14.75 78.304688 C 13.976562 78.703125 13.675781 79.648438 14.074219 80.417969 C 14.351562 80.960938 14.902344 81.269531 15.472656 81.269531 C 15.71875 81.269531 15.964844 81.210938 16.195312 81.09375 L 46.542969 65.441406 C 47.316406 65.042969 47.617188 64.09375 47.222656 63.324219 Z M 47.222656 63.324219 " fill-opacity="1" fill-rule="nonzero"/><path fill="#000000" d="M 11.964844 29.511719 C 11.964844 30.378906 12.675781 31.082031 13.542969 31.082031 L 36.0625 31.082031 C 36.933594 31.082031 37.636719 30.378906 37.636719 29.511719 C 37.636719 28.644531 36.929688 27.941406 36.0625 27.941406 L 13.542969 27.941406 C 12.671875 27.941406 11.964844 28.648438 11.964844 29.511719 Z M 11.964844 29.511719 " fill-opacity="1" fill-rule="nonzero"/><path fill="#000000" d="M 23.082031 11.355469 C 22.210938 11.355469 21.507812 12.058594 21.507812 12.925781 C 21.507812 13.792969 22.214844 14.496094 23.082031 14.496094 L 45.601562 14.496094 C 46.472656 14.496094 47.179688 13.792969 47.179688 12.925781 C 47.179688 12.058594 46.46875 11.355469 45.601562 11.355469 Z M 23.082031 11.355469 " fill-opacity="1" fill-rule="nonzero"/><path fill="#000000" d="M 36.0625 49.121094 C 36.933594 49.121094 37.636719 48.414062 37.636719 47.550781 C 37.636719 46.6875 36.929688 45.980469 36.0625 45.980469 L 13.542969 45.980469 C 12.671875 45.980469 11.964844 46.6875 11.964844 47.550781 C 11.964844 48.414062 12.675781 49.121094 13.542969 49.121094 Z M 36.0625 49.121094 " fill-opacity="1" fill-rule="nonzero"/><path fill="#000000" d="M 28.308594 39.523438 C 28.308594 38.65625 27.601562 37.953125 26.734375 37.953125 L 4.214844 37.953125 C 3.34375 37.953125 2.640625 38.660156 2.640625 39.523438 C 2.640625 40.386719 3.347656 41.09375 4.214844 41.09375 L 26.734375 41.09375 C 27.601562 41.09375 28.308594 40.390625 28.308594 39.523438 Z M 28.308594 39.523438 " fill-opacity="1" fill-rule="nonzero"/><path fill="#000000" d="M 25.417969 21.929688 C 26.285156 21.929688 26.992188 21.226562 26.992188 20.359375 C 26.992188 19.492188 26.28125 18.789062 25.417969 18.789062 L 2.894531 18.789062 C 2.023438 18.789062 1.320312 19.492188 1.320312 20.359375 C 1.320312 21.226562 2.027344 21.929688 2.894531 21.929688 Z M 25.417969 21.929688 " fill-opacity="1" fill-rule="nonzero"/></svg>