<svg xmlns="http://www.w3.org/2000/svg" xmlns:xlink="http://www.w3.org/1999/xlink" width="128" zoomAndPan="magnify" viewBox="0 0 96 95.999999" height="128" preserveAspectRatio="xMidYMid meet" version="1.0"><path fill="#000000" d="M 87.667969 28.199219 L 83.339844 23.863281 L 70.332031 10.863281 C 70.136719 10.671875 69.914062 10.523438 69.664062 10.417969 C 69.414062 10.316406 69.152344 10.265625 68.878906 10.265625 C 68.605469 10.265625 68.34375 10.316406 68.09375 10.421875 C 67.84375 10.527344 67.621094 10.675781 67.429688 10.867188 C 67.234375 11.058594 67.085938 11.28125 66.984375 11.53125 C 66.878906 11.785156 66.828125 12.046875 66.828125 12.320312 C 66.828125 12.589844 66.878906 12.851562 66.984375 13.105469 C 67.085938 13.355469 67.234375 13.578125 67.429688 13.769531 L 70.300781 16.644531 L 60.214844 26.746094 L 57.339844 23.875 L 54.097656 20.625 C 53.90625 20.433594 53.683594 20.285156 53.429688 20.179688 C 53.179688 20.078125 52.917969 20.023438 52.644531 20.023438 C 52.371094 20.027344 52.109375 20.078125 51.859375 20.183594 C 51.609375 20.285156 51.386719 20.433594 51.191406 20.628906 C 51 20.820312 50.851562 21.042969 50.75 21.292969 C 50.644531 21.546875 50.59375 21.808594 50.59375 22.082031 C 50.59375 22.351562 50.644531 22.613281 50.75 22.867188 C 50.855469 23.117188 51.003906 23.339844 51.195312 23.53125 L 52.992188 25.332031 L 27.285156 51.007812 C 27.171875 51.121094 27.09375 51.242188 26.980469 51.359375 C 26.949219 51.386719 26.90625 51.394531 26.878906 51.425781 C 26.828125 51.492188 26.78125 51.566406 26.738281 51.636719 C 25.476562 52.84375 24.46875 54.234375 23.714844 55.808594 C 22.960938 57.382812 22.511719 59.042969 22.367188 60.78125 C 22.386719 62.4375 22.707031 64.03125 23.324219 65.566406 C 23.941406 67.101562 24.8125 68.476562 25.941406 69.6875 L 10.863281 84.761719 C 10.671875 84.953125 10.523438 85.175781 10.417969 85.429688 C 10.3125 85.679688 10.261719 85.941406 10.261719 86.214844 C 10.261719 86.488281 10.3125 86.75 10.417969 87 C 10.523438 87.253906 10.671875 87.476562 10.863281 87.667969 C 11.054688 87.859375 11.277344 88.007812 11.53125 88.113281 C 11.78125 88.21875 12.042969 88.269531 12.316406 88.269531 C 12.589844 88.269531 12.851562 88.21875 13.101562 88.113281 C 13.355469 88.007812 13.578125 87.859375 13.769531 87.667969 L 28.84375 72.589844 C 30.015625 73.667969 31.339844 74.511719 32.8125 75.121094 C 34.28125 75.730469 35.8125 76.070312 37.40625 76.136719 C 39.351562 76.035156 41.203125 75.5625 42.960938 74.710938 C 44.714844 73.863281 46.238281 72.707031 47.523438 71.242188 L 73.210938 45.570312 L 75.011719 47.367188 C 75.203125 47.5625 75.425781 47.710938 75.675781 47.816406 C 75.929688 47.917969 76.191406 47.972656 76.464844 47.972656 C 76.734375 47.972656 76.996094 47.917969 77.25 47.816406 C 77.5 47.710938 77.722656 47.5625 77.914062 47.371094 C 78.109375 47.179688 78.257812 46.957031 78.363281 46.703125 C 78.464844 46.453125 78.519531 46.191406 78.519531 45.917969 C 78.519531 45.648438 78.464844 45.382812 78.363281 45.132812 C 78.257812 44.882812 78.109375 44.660156 77.917969 44.464844 L 71.792969 38.339844 L 81.886719 28.246094 L 84.761719 31.121094 C 84.953125 31.3125 85.175781 31.460938 85.425781 31.566406 C 85.679688 31.667969 85.941406 31.722656 86.214844 31.722656 C 86.484375 31.722656 86.746094 31.671875 87 31.566406 C 87.25 31.460938 87.472656 31.3125 87.667969 31.121094 C 87.859375 30.929688 88.007812 30.707031 88.113281 30.457031 C 88.214844 30.203125 88.269531 29.941406 88.269531 29.667969 C 88.269531 29.398438 88.21875 29.136719 88.113281 28.882812 C 88.007812 28.632812 87.859375 28.410156 87.667969 28.21875 Z M 44.621094 68.339844 C 39.625 73.328125 35.179688 73.328125 30.191406 68.339844 C 29.082031 67.414062 28.207031 66.304688 27.558594 65.011719 C 26.914062 63.722656 26.550781 62.355469 26.472656 60.914062 C 26.617188 59.039062 27.28125 57.375 28.46875 55.917969 L 33.484375 60.941406 C 33.679688 61.128906 33.898438 61.273438 34.148438 61.371094 C 34.398438 61.472656 34.660156 61.519531 34.929688 61.519531 C 35.195312 61.515625 35.457031 61.460938 35.703125 61.359375 C 35.953125 61.253906 36.171875 61.105469 36.363281 60.917969 C 36.550781 60.726562 36.699219 60.507812 36.804688 60.257812 C 36.90625 60.011719 36.960938 59.753906 36.964844 59.484375 C 36.964844 59.214844 36.917969 58.953125 36.816406 58.703125 C 36.71875 58.453125 36.574219 58.234375 36.386719 58.039062 L 31.226562 52.875 L 37.007812 47.09375 L 42.152344 52.238281 C 42.34375 52.425781 42.566406 52.566406 42.816406 52.667969 C 43.066406 52.769531 43.324219 52.816406 43.59375 52.8125 C 43.863281 52.8125 44.121094 52.757812 44.371094 52.65625 C 44.617188 52.550781 44.839844 52.402344 45.027344 52.214844 C 45.21875 52.023438 45.367188 51.804688 45.46875 51.554688 C 45.574219 51.308594 45.628906 51.046875 45.628906 50.78125 C 45.632812 50.511719 45.582031 50.25 45.484375 50 C 45.382812 49.75 45.242188 49.527344 45.054688 49.335938 L 39.910156 44.191406 L 45.691406 38.410156 L 50.855469 43.570312 C 51.046875 43.765625 51.269531 43.910156 51.519531 44.015625 C 51.773438 44.121094 52.035156 44.171875 52.304688 44.171875 C 52.578125 44.171875 52.839844 44.121094 53.089844 44.015625 C 53.34375 43.910156 53.566406 43.765625 53.757812 43.570312 C 53.949219 43.378906 54.097656 43.15625 54.203125 42.90625 C 54.304688 42.652344 54.359375 42.390625 54.359375 42.121094 C 54.359375 41.847656 54.304688 41.585938 54.203125 41.335938 C 54.097656 41.082031 53.949219 40.859375 53.757812 40.667969 L 48.59375 35.507812 L 55.878906 28.222656 L 67.425781 39.765625 L 70.296875 42.640625 Z M 68.882812 35.414062 L 63.132812 29.667969 L 73.230469 19.570312 L 78.976562 25.320312 Z M 68.882812 35.414062 " fill-opacity="1" fill-rule="nonzero"/></svg>